STARTFONT 2.1
FONT -FontForge-BritishRailDarkNormal-Book-R-Normal--8-80-75-75-P-55-ISO10646-1
SIZE 8 75 75
FONTBOUNDINGBOX 11 8 0 -2
COMMENT "Generated by fontforge, http://fontforge.sourceforge.net"
COMMENT "British Rail"
STARTPROPERTIES 39
FOUNDRY "FontForge"
FAMILY_NAME "BritishRailDarkNormal"
WEIGHT_NAME "Book"
SLANT "R"
SETWIDTH_NAME "Normal"
ADD_STYLE_NAME ""
PIXEL_SIZE 8
POINT_SIZE 80
RESOLUTION_X 75
RESOLUTION_Y 75
SPACING "P"
AVERAGE_WIDTH 55
CHARSET_REGISTRY "ISO10646"
CHARSET_ENCODING "1"
FONTNAME_REGISTRY ""
CHARSET_COLLECTIONS "ISO10646-1"
FONT_NAME "BritishRailDarkNormal"
FACE_NAME "BritishRailDarkNormal"
COPYRIGHT "British Rail"
FONT_VERSION "Macromedia Fontographer 4.1.5 19/7/01"
FONT_ASCENT 6
FONT_DESCENT 2
UNDERLINE_POSITION 0
UNDERLINE_THICKNESS 0
X_HEIGHT 3
CAP_HEIGHT 4
RAW_ASCENT 800
RAW_DESCENT 200
NORM_SPACE 2
RELATIVE_WEIGHT 40
RELATIVE_SETWIDTH 50
SUPERSCRIPT_X 0
SUPERSCRIPT_Y 3
SUPERSCRIPT_SIZE 5
SUBSCRIPT_X 0
SUBSCRIPT_Y 1
SUBSCRIPT_SIZE 5
AVG_LOWERCASE_WIDTH 48
AVG_UPPERCASE_WIDTH 48
ENDPROPERTIES
CHARS 160
STARTCHAR space
ENCODING 32
SWIDTH 193 0
DWIDTH 2 0
BBX 1 1 0 0
BITMAP
00
ENDCHAR
STARTCHAR exclam
ENCODING 33
SWIDTH 248 0
DWIDTH 2 0
BBX 1 5 1 0
BITMAP
80
80
80
80
80
ENDCHAR
STARTCHAR dollar
ENCODING 36
SWIDTH 1255 0
DWIDTH 10 0
BBX 8 8 1 -2
BITMAP
08
37
3D
62
62
C4
E4
38
ENDCHAR
STARTCHAR percent
ENCODING 37
SWIDTH 1256 0
DWIDTH 10 0
BBX 5 8 2 -2
BITMAP
C0
C0
80
C0
40
60
38
18
ENDCHAR
STARTCHAR ampersand
ENCODING 38
SWIDTH 582 0
DWIDTH 5 0
BBX 5 5 0 0
BITMAP
60
60
F0
B0
78
ENDCHAR
STARTCHAR parenleft
ENCODING 40
SWIDTH 327 0
DWIDTH 3 0
BBX 2 6 0 -1
BITMAP
40
80
80
80
80
40
ENDCHAR
STARTCHAR parenright
ENCODING 41
SWIDTH 327 0
DWIDTH 3 0
BBX 2 6 0 -1
BITMAP
80
40
40
40
40
80
ENDCHAR
STARTCHAR asterisk
ENCODING 42
SWIDTH 1255 0
DWIDTH 10 0
BBX 8 8 0 -2
BITMAP
1C
1C
0C
FF
67
72
73
63
ENDCHAR
STARTCHAR plus
ENCODING 43
SWIDTH 1256 0
DWIDTH 10 0
BBX 8 8 1 -2
BITMAP
28
18
18
FF
98
18
6E
66
ENDCHAR
STARTCHAR comma
ENCODING 44
SWIDTH 162 0
DWIDTH 1 0
BBX 1 2 0 -1
BITMAP
80
80
ENDCHAR
STARTCHAR hyphen
ENCODING 45
SWIDTH 264 0
DWIDTH 2 0
BBX 2 1 0 2
BITMAP
C0
ENDCHAR
STARTCHAR period
ENCODING 46
SWIDTH 160 0
DWIDTH 1 0
BBX 1 1 0 0
BITMAP
80
ENDCHAR
STARTCHAR slash
ENCODING 47
SWIDTH 304 0
DWIDTH 2 0
BBX 2 7 0 -1
BITMAP
40
40
40
80
80
80
80
ENDCHAR
STARTCHAR zero
ENCODING 48
SWIDTH 597 0
DWIDTH 5 0
BBX 4 5 0 0
BITMAP
70
90
90
90
70
ENDCHAR
STARTCHAR one
ENCODING 49
SWIDTH 295 0
DWIDTH 2 0
BBX 2 5 0 0
BITMAP
C0
40
40
40
40
ENDCHAR
STARTCHAR two
ENCODING 50
SWIDTH 529 0
DWIDTH 4 0
BBX 4 5 0 0
BITMAP
E0
90
30
40
F0
ENDCHAR
STARTCHAR three
ENCODING 51
SWIDTH 556 0
DWIDTH 4 0
BBX 4 5 0 0
BITMAP
70
90
30
90
70
ENDCHAR
STARTCHAR four
ENCODING 52
SWIDTH 582 0
DWIDTH 5 0
BBX 4 5 0 0
BITMAP
30
50
D0
F0
10
ENDCHAR
STARTCHAR five
ENCODING 53
SWIDTH 547 0
DWIDTH 4 0
BBX 4 5 0 0
BITMAP
F0
E0
90
90
E0
ENDCHAR
STARTCHAR six
ENCODING 54
SWIDTH 550 0
DWIDTH 4 0
BBX 4 5 0 0
BITMAP
70
A0
D0
90
60
ENDCHAR
STARTCHAR seven
ENCODING 55
SWIDTH 462 0
DWIDTH 4 0
BBX 4 5 0 0
BITMAP
F0
20
20
60
40
ENDCHAR
STARTCHAR eight
ENCODING 56
SWIDTH 548 0
DWIDTH 4 0
BBX 4 5 0 0
BITMAP
70
90
F0
90
F0
ENDCHAR
STARTCHAR nine
ENCODING 57
SWIDTH 550 0
DWIDTH 4 0
BBX 4 5 0 0
BITMAP
60
90
F0
10
E0
ENDCHAR
STARTCHAR colon
ENCODING 58
SWIDTH 161 0
DWIDTH 1 0
BBX 1 1 0 1
BITMAP
00
ENDCHAR
STARTCHAR semicolon
ENCODING 59
SWIDTH 162 0
DWIDTH 1 0
BBX 1 4 0 -1
BITMAP
80
00
80
80
ENDCHAR
STARTCHAR less
ENCODING 60
SWIDTH 1256 0
DWIDTH 10 0
BBX 3 8 3 -2
BITMAP
40
40
60
E0
60
E0
40
40
ENDCHAR
STARTCHAR equal
ENCODING 61
SWIDTH 1647 0
DWIDTH 13 0
BBX 9 6 2 -1
BITMAP
1800
FF80
0600
1800
FF80
0E00
ENDCHAR
STARTCHAR greater
ENCODING 62
SWIDTH 1256 0
DWIDTH 10 0
BBX 4 8 3 -2
BITMAP
60
40
70
F0
F0
60
50
90
ENDCHAR
STARTCHAR question
ENCODING 63
SWIDTH 525 0
DWIDTH 4 0
BBX 3 5 0 0
BITMAP
E0
A0
60
40
40
ENDCHAR
STARTCHAR at
ENCODING 64
SWIDTH 1256 0
DWIDTH 10 0
BBX 7 8 1 -2
BITMAP
FE
FE
EE
82
82
EE
FE
FE
ENDCHAR
STARTCHAR A
ENCODING 65
SWIDTH 600 0
DWIDTH 5 0
BBX 5 5 0 0
BITMAP
20
50
50
70
98
ENDCHAR
STARTCHAR B
ENCODING 66
SWIDTH 599 0
DWIDTH 5 0
BBX 4 5 0 0
BITMAP
F0
90
F0
90
F0
ENDCHAR
STARTCHAR C
ENCODING 67
SWIDTH 601 0
DWIDTH 5 0
BBX 4 5 0 0
BITMAP
70
90
80
90
70
ENDCHAR
STARTCHAR D
ENCODING 68
SWIDTH 623 0
DWIDTH 5 0
BBX 4 5 0 0
BITMAP
F0
90
90
90
F0
ENDCHAR
STARTCHAR E
ENCODING 69
SWIDTH 540 0
DWIDTH 4 0
BBX 4 5 0 0
BITMAP
F0
80
E0
80
F0
ENDCHAR
STARTCHAR F
ENCODING 70
SWIDTH 522 0
DWIDTH 4 0
BBX 4 5 0 0
BITMAP
F0
80
E0
80
80
ENDCHAR
STARTCHAR G
ENCODING 71
SWIDTH 636 0
DWIDTH 5 0
BBX 5 5 0 0
BITMAP
70
80
B8
98
78
ENDCHAR
STARTCHAR H
ENCODING 72
SWIDTH 606 0
DWIDTH 5 0
BBX 4 5 0 0
BITMAP
90
90
F0
90
90
ENDCHAR
STARTCHAR I
ENCODING 73
SWIDTH 233 0
DWIDTH 2 0
BBX 1 5 0 0
BITMAP
80
80
80
80
80
ENDCHAR
STARTCHAR J
ENCODING 74
SWIDTH 310 0
DWIDTH 2 0
BBX 2 5 0 0
BITMAP
40
40
40
40
C0
ENDCHAR
STARTCHAR K
ENCODING 75
SWIDTH 566 0
DWIDTH 5 0
BBX 4 5 0 0
BITMAP
B0
E0
E0
A0
90
ENDCHAR
STARTCHAR L
ENCODING 76
SWIDTH 504 0
DWIDTH 4 0
BBX 4 5 0 0
BITMAP
80
80
80
80
F0
ENDCHAR
STARTCHAR M
ENCODING 77
SWIDTH 734 0
DWIDTH 6 0
BBX 5 5 0 0
BITMAP
D8
D8
D8
A8
A8
ENDCHAR
STARTCHAR N
ENCODING 78
SWIDTH 659 0
DWIDTH 5 0
BBX 4 5 0 0
BITMAP
D0
D0
B0
B0
90
ENDCHAR
STARTCHAR O
ENCODING 79
SWIDTH 640 0
DWIDTH 5 0
BBX 5 5 0 0
BITMAP
70
88
88
98
70
ENDCHAR
STARTCHAR P
ENCODING 80
SWIDTH 547 0
DWIDTH 4 0
BBX 4 5 0 0
BITMAP
E0
90
F0
80
80
ENDCHAR
STARTCHAR Q
ENCODING 81
SWIDTH 647 0
DWIDTH 5 0
BBX 5 6 0 -1
BITMAP
70
88
88
98
70
08
ENDCHAR
STARTCHAR R
ENCODING 82
SWIDTH 563 0
DWIDTH 5 0
BBX 4 5 0 0
BITMAP
F0
90
E0
90
90
ENDCHAR
STARTCHAR S
ENCODING 83
SWIDTH 585 0
DWIDTH 5 0
BBX 4 5 0 0
BITMAP
70
80
70
90
70
ENDCHAR
STARTCHAR T
ENCODING 84
SWIDTH 478 0
DWIDTH 4 0
BBX 4 5 0 0
BITMAP
F0
40
40
40
40
ENDCHAR
STARTCHAR U
ENCODING 85
SWIDTH 628 0
DWIDTH 5 0
BBX 4 5 0 0
BITMAP
90
90
90
90
70
ENDCHAR
STARTCHAR V
ENCODING 86
SWIDTH 576 0
DWIDTH 5 0
BBX 4 5 0 0
BITMAP
90
D0
50
70
60
ENDCHAR
STARTCHAR W
ENCODING 87
SWIDTH 823 0
DWIDTH 7 0
BBX 6 5 0 0
BITMAP
94
B4
74
6C
68
ENDCHAR
STARTCHAR X
ENCODING 88
SWIDTH 588 0
DWIDTH 5 0
BBX 4 5 0 0
BITMAP
D0
70
20
70
D0
ENDCHAR
STARTCHAR Y
ENCODING 89
SWIDTH 550 0
DWIDTH 4 0
BBX 4 5 0 0
BITMAP
90
70
60
20
20
ENDCHAR
STARTCHAR Z
ENCODING 90
SWIDTH 511 0
DWIDTH 4 0
BBX 4 5 0 0
BITMAP
F0
20
60
C0
F0
ENDCHAR
STARTCHAR bracketleft
ENCODING 91
SWIDTH 1255 0
DWIDTH 10 0
BBX 6 4 1 0
BITMAP
3C
3C
38
FC
ENDCHAR
STARTCHAR backslash
ENCODING 92
SWIDTH 1255 0
DWIDTH 10 0
BBX 7 8 1 -2
BITMAP
04
CA
6C
38
38
6C
C4
02
ENDCHAR
STARTCHAR bracketright
ENCODING 93
SWIDTH 1255 0
DWIDTH 10 0
BBX 4 6 3 -1
BITMAP
F0
F0
F0
60
40
60
ENDCHAR
STARTCHAR a
ENCODING 97
SWIDTH 510 0
DWIDTH 4 0
BBX 4 4 0 0
BITMAP
E0
30
D0
F0
ENDCHAR
STARTCHAR b
ENCODING 98
SWIDTH 538 0
DWIDTH 4 0
BBX 4 5 0 0
BITMAP
80
E0
90
90
E0
ENDCHAR
STARTCHAR c
ENCODING 99
SWIDTH 499 0
DWIDTH 4 0
BBX 3 4 0 0
BITMAP
60
80
80
60
ENDCHAR
STARTCHAR d
ENCODING 100
SWIDTH 540 0
DWIDTH 4 0
BBX 4 5 0 0
BITMAP
10
70
90
90
70
ENDCHAR
STARTCHAR e
ENCODING 101
SWIDTH 517 0
DWIDTH 4 0
BBX 4 4 0 0
BITMAP
60
F0
80
60
ENDCHAR
STARTCHAR f
ENCODING 102
SWIDTH 309 0
DWIDTH 2 0
BBX 2 5 0 0
BITMAP
40
C0
40
40
40
ENDCHAR
STARTCHAR g
ENCODING 103
SWIDTH 522 0
DWIDTH 4 0
BBX 4 5 0 -1
BITMAP
70
90
90
70
E0
ENDCHAR
STARTCHAR h
ENCODING 104
SWIDTH 514 0
DWIDTH 4 0
BBX 3 5 0 0
BITMAP
80
E0
A0
A0
A0
ENDCHAR
STARTCHAR i
ENCODING 105
SWIDTH 212 0
DWIDTH 2 0
BBX 1 5 0 0
BITMAP
80
80
80
80
80
ENDCHAR
STARTCHAR j
ENCODING 106
SWIDTH 232 0
DWIDTH 2 0
BBX 2 6 0 -1
BITMAP
40
40
40
40
40
C0
ENDCHAR
STARTCHAR k
ENCODING 107
SWIDTH 507 0
DWIDTH 4 0
BBX 3 5 0 0
BITMAP
80
A0
C0
A0
A0
ENDCHAR
STARTCHAR l
ENCODING 108
SWIDTH 211 0
DWIDTH 2 0
BBX 1 5 0 0
BITMAP
80
80
80
80
80
ENDCHAR
STARTCHAR m
ENCODING 109
SWIDTH 764 0
DWIDTH 6 0
BBX 5 4 0 0
BITMAP
F8
A8
A8
A8
ENDCHAR
STARTCHAR n
ENCODING 110
SWIDTH 518 0
DWIDTH 4 0
BBX 4 4 0 0
BITMAP
E0
A0
B0
B0
ENDCHAR
STARTCHAR o
ENCODING 111
SWIDTH 524 0
DWIDTH 4 0
BBX 4 4 0 0
BITMAP
60
90
90
60
ENDCHAR
STARTCHAR p
ENCODING 112
SWIDTH 540 0
DWIDTH 4 0
BBX 4 5 0 -1
BITMAP
E0
90
90
E0
80
ENDCHAR
STARTCHAR q
ENCODING 113
SWIDTH 540 0
DWIDTH 4 0
BBX 4 5 0 -1
BITMAP
70
90
90
70
10
ENDCHAR
STARTCHAR r
ENCODING 114
SWIDTH 334 0
DWIDTH 3 0
BBX 2 4 0 0
BITMAP
C0
80
80
80
ENDCHAR
STARTCHAR s
ENCODING 115
SWIDTH 489 0
DWIDTH 4 0
BBX 4 4 0 0
BITMAP
E0
C0
30
E0
ENDCHAR
STARTCHAR t
ENCODING 116
SWIDTH 318 0
DWIDTH 3 0
BBX 2 5 0 0
BITMAP
40
C0
40
40
40
ENDCHAR
STARTCHAR u
ENCODING 117
SWIDTH 513 0
DWIDTH 4 0
BBX 3 4 0 0
BITMAP
A0
A0
A0
E0
ENDCHAR
STARTCHAR v
ENCODING 118
SWIDTH 508 0
DWIDTH 4 0
BBX 4 4 0 0
BITMAP
90
70
60
60
ENDCHAR
STARTCHAR w
ENCODING 119
SWIDTH 727 0
DWIDTH 6 0
BBX 6 4 0 0
BITMAP
B4
B8
78
58
ENDCHAR
STARTCHAR x
ENCODING 120
SWIDTH 492 0
DWIDTH 4 0
BBX 4 4 0 0
BITMAP
E0
60
60
B0
ENDCHAR
STARTCHAR y
ENCODING 121
SWIDTH 485 0
DWIDTH 4 0
BBX 4 5 0 -1
BITMAP
90
60
60
60
40
ENDCHAR
STARTCHAR z
ENCODING 122
SWIDTH 430 0
DWIDTH 3 0
BBX 3 4 0 0
BITMAP
E0
60
40
E0
ENDCHAR
STARTCHAR braceleft
ENCODING 123
SWIDTH 1256 0
DWIDTH 10 0
BBX 7 8 2 -2
BITMAP
60
60
40
60
B8
8C
8E
70
ENDCHAR
STARTCHAR braceright
ENCODING 125
SWIDTH 1256 0
DWIDTH 10 0
BBX 7 8 1 -2
BITMAP
0C
04
04
1C
3A
62
E2
1C
ENDCHAR
STARTCHAR nonbreakingspace
ENCODING 160
SWIDTH 193 0
DWIDTH 2 0
BBX 1 1 0 0
BITMAP
00
ENDCHAR
STARTCHAR sterling
ENCODING 163
SWIDTH 551 0
DWIDTH 4 0
BBX 4 5 0 0
BITMAP
60
90
C0
40
F0
ENDCHAR
STARTCHAR yen
ENCODING 165
SWIDTH 1255 0
DWIDTH 10 0
BBX 9 4 0 0
BITMAP
FF80
D580
FF80
7F80
ENDCHAR
STARTCHAR section
ENCODING 167
SWIDTH 1255 0
DWIDTH 10 0
BBX 8 6 1 -1
BITMAP
FF
AA
FE
FE
FE
FF
ENDCHAR
STARTCHAR copyright
ENCODING 169
SWIDTH 1256 0
DWIDTH 10 0
BBX 6 6 2 -1
BITMAP
04
8C
98
B0
E0
F8
ENDCHAR
STARTCHAR ordfeminine
ENCODING 170
SWIDTH 1256 0
DWIDTH 10 0
BBX 8 8 1 -2
BITMAP
C0
C2
01
03
07
CE
EE
E8
ENDCHAR
STARTCHAR guillemotleft
ENCODING 171
SWIDTH 431 0
DWIDTH 3 0
BBX 3 4 0 0
BITMAP
80
C0
C0
A0
ENDCHAR
STARTCHAR logicalnot
ENCODING 172
SWIDTH 1255 0
DWIDTH 10 0
BBX 6 6 2 -1
BITMAP
F8
E0
B0
98
8C
04
ENDCHAR
STARTCHAR registered
ENCODING 174
SWIDTH 1256 0
DWIDTH 10 0
BBX 8 6 1 -1
BITMAP
3C
42
FF
FF
42
3C
ENDCHAR
STARTCHAR mu
ENCODING 181
SWIDTH 1256 0
DWIDTH 10 0
BBX 8 8 1 -2
BITMAP
3F
01
31
F9
F9
31
01
3F
ENDCHAR
STARTCHAR paragraph
ENCODING 182
SWIDTH 1255 0
DWIDTH 10 0
BBX 7 8 1 -2
BITMAP
FE
B2
DE
FE
FE
FE
08
38
ENDCHAR
STARTCHAR periodcentered
ENCODING 183
SWIDTH 253 0
DWIDTH 2 0
BBX 1 1 0 2
BITMAP
80
ENDCHAR
STARTCHAR ordmasculine
ENCODING 186
SWIDTH 1255 0
DWIDTH 10 0
BBX 7 8 1 -2
BITMAP
C2
C2
D2
1E
16
18
16
10
ENDCHAR
STARTCHAR guillemotright
ENCODING 187
SWIDTH 431 0
DWIDTH 3 0
BBX 2 4 0 0
BITMAP
40
C0
C0
C0
ENDCHAR
STARTCHAR Acircumflex
ENCODING 194
SWIDTH 607 0
DWIDTH 5 0
BBX 4 6 0 0
BITMAP
40
20
50
50
70
90
ENDCHAR
STARTCHAR Ccedilla
ENCODING 199
SWIDTH 609 0
DWIDTH 5 0
BBX 4 6 0 -1
BITMAP
70
80
80
90
70
20
ENDCHAR
STARTCHAR Egrave
ENCODING 200
SWIDTH 548 0
DWIDTH 4 0
BBX 4 6 0 0
BITMAP
40
F0
80
E0
80
F0
ENDCHAR
STARTCHAR Eacute
ENCODING 201
SWIDTH 548 0
DWIDTH 4 0
BBX 4 6 0 0
BITMAP
40
F0
80
E0
80
F0
ENDCHAR
STARTCHAR Ecircumflex
ENCODING 202
SWIDTH 548 0
DWIDTH 4 0
BBX 4 6 0 0
BITMAP
20
F0
80
E0
80
F0
ENDCHAR
STARTCHAR Igrave
ENCODING 204
SWIDTH 239 0
DWIDTH 2 0
BBX 1 5 0 0
BITMAP
80
80
80
80
80
ENDCHAR
STARTCHAR Ograve
ENCODING 210
SWIDTH 647 0
DWIDTH 5 0
BBX 5 6 0 0
BITMAP
20
70
88
88
88
70
ENDCHAR
STARTCHAR Ocircumflex
ENCODING 212
SWIDTH 647 0
DWIDTH 5 0
BBX 5 6 0 0
BITMAP
50
70
88
88
88
70
ENDCHAR
STARTCHAR Ugrave
ENCODING 217
SWIDTH 634 0
DWIDTH 5 0
BBX 4 6 0 0
BITMAP
20
90
90
90
90
70
ENDCHAR
STARTCHAR germandbls
ENCODING 223
SWIDTH 1255 0
DWIDTH 10 0
BBX 8 6 1 -1
BITMAP
0C
06
FF
FF
06
0C
ENDCHAR
STARTCHAR agrave
ENCODING 224
SWIDTH 519 0
DWIDTH 4 0
BBX 4 4 0 0
BITMAP
E0
30
D0
F0
ENDCHAR
STARTCHAR acircumflex
ENCODING 226
SWIDTH 519 0
DWIDTH 4 0
BBX 4 5 0 0
BITMAP
60
E0
30
D0
F0
ENDCHAR
STARTCHAR aring
ENCODING 229
SWIDTH 1255 0
DWIDTH 10 0
BBX 8 6 1 -1
BITMAP
30
60
FF
FF
60
30
ENDCHAR
STARTCHAR ae
ENCODING 230
SWIDTH 869 0
DWIDTH 7 0
BBX 6 4 0 0
BITMAP
FC
3C
D0
FC
ENDCHAR
STARTCHAR ccedilla
ENCODING 231
SWIDTH 506 0
DWIDTH 4 0
BBX 3 4 0 0
BITMAP
60
80
80
E0
ENDCHAR
STARTCHAR egrave
ENCODING 232
SWIDTH 524 0
DWIDTH 4 0
BBX 4 5 0 0
BITMAP
20
60
F0
80
60
ENDCHAR
STARTCHAR eacute
ENCODING 233
SWIDTH 524 0
DWIDTH 4 0
BBX 4 5 0 0
BITMAP
40
60
F0
80
60
ENDCHAR
STARTCHAR ecircumflex
ENCODING 234
SWIDTH 524 0
DWIDTH 4 0
BBX 4 5 0 0
BITMAP
60
60
F0
80
60
ENDCHAR
STARTCHAR edieresis
ENCODING 235
SWIDTH 524 0
DWIDTH 4 0
BBX 4 5 0 0
BITMAP
60
60
F0
80
60
ENDCHAR
STARTCHAR icircumflex
ENCODING 238
SWIDTH 218 0
DWIDTH 2 0
BBX 1 4 0 0
BITMAP
80
80
80
80
ENDCHAR
STARTCHAR idieresis
ENCODING 239
SWIDTH 218 0
DWIDTH 2 0
BBX 2 5 0 0
BITMAP
C0
80
80
80
80
ENDCHAR
STARTCHAR ocircumflex
ENCODING 244
SWIDTH 530 0
DWIDTH 4 0
BBX 4 5 0 0
BITMAP
20
60
90
90
60
ENDCHAR
STARTCHAR divide
ENCODING 247
SWIDTH 1256 0
DWIDTH 10 0
BBX 8 8 1 -2
BITMAP
10
10
B5
BD
99
81
81
FF
ENDCHAR
STARTCHAR oslash
ENCODING 248
SWIDTH 1255 0
DWIDTH 10 0
BBX 9 4 0 0
BITMAP
FF80
DA80
FF80
BE00
ENDCHAR
STARTCHAR ugrave
ENCODING 249
SWIDTH 520 0
DWIDTH 4 0
BBX 3 4 0 0
BITMAP
80
A0
A0
E0
ENDCHAR
STARTCHAR ucircumflex
ENCODING 251
SWIDTH 520 0
DWIDTH 4 0
BBX 3 5 0 0
BITMAP
20
80
A0
A0
E0
ENDCHAR
STARTCHAR udieresis
ENCODING 252
SWIDTH 520 0
DWIDTH 4 0
BBX 3 5 0 0
BITMAP
20
80
A0
A0
E0
ENDCHAR
STARTCHAR oe
ENCODING 339
SWIDTH 902 0
DWIDTH 7 0
BBX 7 4 0 0
BITMAP
6C
9E
90
6C
ENDCHAR
STARTCHAR florin
ENCODING 402
SWIDTH 1256 0
DWIDTH 10 0
BBX 6 8 2 -2
BITMAP
30
30
30
30
B4
FC
70
20
ENDCHAR
STARTCHAR Delta
ENCODING 916
SWIDTH 1256 0
DWIDTH 10 0
BBX 6 6 2 -1
BITMAP
40
E4
74
1C
0C
7C
ENDCHAR
STARTCHAR Omega
ENCODING 937
SWIDTH 1255 0
DWIDTH 10 0
BBX 8 8 1 -2
BITMAP
3F
01
61
F9
79
61
01
3F
ENDCHAR
STARTCHAR mu.dup1
ENCODING 956
SWIDTH 1256 0
DWIDTH 10 0
BBX 8 8 1 -2
BITMAP
3F
01
31
F9
F9
31
01
3F
ENDCHAR
STARTCHAR pi
ENCODING 960
SWIDTH 1256 0
DWIDTH 10 0
BBX 9 5 0 -1
BITMAP
4200
4A00
7E00
FF80
FF80
ENDCHAR
STARTCHAR hyphen.dup2
ENCODING 8208
SWIDTH 264 0
DWIDTH 2 0
BBX 2 1 0 2
BITMAP
C0
ENDCHAR
STARTCHAR endash
ENCODING 8211
SWIDTH 385 0
DWIDTH 3 0
BBX 1 1 1 2
BITMAP
80
ENDCHAR
STARTCHAR emdash
ENCODING 8212
SWIDTH 762 0
DWIDTH 6 0
BBX 2 1 2 2
BITMAP
C0
ENDCHAR
STARTCHAR quoteleft
ENCODING 8216
SWIDTH 161 0
DWIDTH 1 0
BBX 1 1 0 4
BITMAP
80
ENDCHAR
STARTCHAR quoteright
ENCODING 8217
SWIDTH 160 0
DWIDTH 1 0
BBX 1 1 0 4
BITMAP
80
ENDCHAR
STARTCHAR quotedblleft
ENCODING 8220
SWIDTH 1256 0
DWIDTH 10 0
BBX 9 5 0 -1
BITMAP
2100
3D00
4700
FF80
FF80
ENDCHAR
STARTCHAR dagger
ENCODING 8224
SWIDTH 1255 0
DWIDTH 10 0
BBX 7 7 1 -2
BITMAP
7C
84
FC
CA
FE
86
84
ENDCHAR
STARTCHAR bullet
ENCODING 8226
SWIDTH 1255 0
DWIDTH 10 0
BBX 8 8 1 -2
BITMAP
07
07
36
BE
DE
BE
BE
FE
ENDCHAR
STARTCHAR ellipsis
ENCODING 8230
SWIDTH 1255 0
DWIDTH 10 0
BBX 6 6 2 -1
BITMAP
3C
4C
1C
74
E4
40
ENDCHAR
STARTCHAR Omega.dup3
ENCODING 8486
SWIDTH 1255 0
DWIDTH 10 0
BBX 8 8 1 -2
BITMAP
3F
01
61
F9
79
61
01
3F
ENDCHAR
STARTCHAR partialdiff
ENCODING 8706
SWIDTH 1256 0
DWIDTH 10 0
BBX 6 8 2 -2
BITMAP
20
70
FC
B4
30
30
30
30
ENDCHAR
STARTCHAR Delta.dup4
ENCODING 8710
SWIDTH 1256 0
DWIDTH 10 0
BBX 6 6 2 -1
BITMAP
40
E4
74
1C
0C
7C
ENDCHAR
STARTCHAR periodcentered.dup5
ENCODING 8729
SWIDTH 253 0
DWIDTH 2 0
BBX 1 1 0 2
BITMAP
80
ENDCHAR
STARTCHAR radical
ENCODING 8730
SWIDTH 1256 0
DWIDTH 10 0
BBX 8 8 1 -2
BITMAP
10
38
B5
91
91
81
81
FF
ENDCHAR
STARTCHAR infinity
ENCODING 8734
SWIDTH 1256 0
DWIDTH 10 0
BBX 7 8 1 -2
BITMAP
80
80
9C
EE
DE
80
7C
C2
ENDCHAR
STARTCHAR integral
ENCODING 8747
SWIDTH 1256 0
DWIDTH 10 0
BBX 8 8 1 -2
BITMAP
FF
81
81
91
91
B5
38
10
ENDCHAR
STARTCHAR approxequal
ENCODING 8776
SWIDTH 1255 0
DWIDTH 10 0
BBX 7 8 1 -2
BITMAP
FC
80
84
9E
9E
84
80
FC
ENDCHAR
STARTCHAR notequal
ENCODING 8800
SWIDTH 1255 0
DWIDTH 10 0
BBX 7 6 1 -1
BITMAP
48
CC
FE
EE
EC
78
ENDCHAR
STARTCHAR lessequal
ENCODING 8804
SWIDTH 1255 0
DWIDTH 10 0
BBX 8 8 1 -2
BITMAP
FC
80
8C
9F
9F
8C
80
FC
ENDCHAR
STARTCHAR greaterequal
ENCODING 8805
SWIDTH 1256 0
DWIDTH 10 0
BBX 8 8 1 -2
BITMAP
FF
81
81
91
B9
B5
10
10
ENDCHAR
STARTCHAR approxequal.dup6
ENCODING 8946
SWIDTH 1255 0
DWIDTH 10 0
BBX 7 8 1 -2
BITMAP
FC
80
84
9E
9E
84
80
FC
ENDCHAR
STARTCHAR .notdef
ENCODING -1
SWIDTH 500 0
DWIDTH 4 0
BBX 3 6 0 0
BITMAP
E0
A0
A0
A0
A0
E0
ENDCHAR
STARTCHAR .null
ENCODING -1
SWIDTH 0 0
DWIDTH 0 0
BBX 1 1 0 0
BITMAP
00
ENDCHAR
STARTCHAR nonmarkingreturn
ENCODING -1
SWIDTH 193 0
DWIDTH 2 0
BBX 1 1 0 0
BITMAP
00
ENDCHAR
STARTCHAR glyph152
ENCODING -1
SWIDTH 333 0
DWIDTH 3 0
BBX 1 1 0 0
BITMAP
00
ENDCHAR
STARTCHAR summmation
ENCODING -1
SWIDTH 1255 0
DWIDTH 10 0
BBX 5 8 2 -2
BITMAP
20
F8
88
F8
F8
B8
78
88
ENDCHAR
ENDFONT
